- 
http://www.Speed.Cd 
       
http://www.Speed.Cd       the fast  and The Hottest Private Tracker on the net

Please Seed back to make the speed Faster!!!

and don't forget to visit      ...... http://www.Speed.Cd..........
-[img]http://img541.imageshack.us/img541/3699/wakewoodbild1.jpg[/img]

[color=blue][size=5][b]Wake.Wood.2011.BDRip.XVID.AC3.HQ.Hive-CM8[/b][/size][/color]


[b]Thx Hive

CM8 Doing It Right The First Time :D

Source Bluray

Video: 720x304 @bitrate 1700 2pass
Audio: English DTS to AC3 5.1 @448
Sample: yes included
Subs: yes english in srt /subs[/b]


[url]http://www.imdb.com/title/tt1296899/[/url]


General
Complete name                    : Wake.Wood.2011.BDRip.XVID.AC3.HQ.Hive-CM8.avi
Format                           : AVI
Format/Info                      : Audio Video Interleave
File size                        : 1.31 GiB
Duration                         : 1h 26mn
Overall bit rate                 : 2 157 Kbps
Writing application              : Nandub v1.0rc2
Writing library                  : Nandub build 1853/release

Video
ID                               : 0
Format                           : MPEG-4 Visual
Format profile                   : Advanced Simple@L5
Format settings, BVOP            : Yes
Format settings, QPel            : Yes
Format settings, GMC             : No warppoints
Format settings, Matrix          : Default (H.263)
Muxing mode                      : Packed bitstream
Codec ID                         : XVID
Codec ID/Hint                    : XviD
Duration                         : 1h 26mn
Bit rate                         : 1 700 Kbps
Width                            : 720 pixels
Height                           : 304 pixels
Display aspect ratio             : 2.35:1
Frame rate                       : 25.000 fps
Color space                      : YUV
Chroma subsampling               : 4:2:0
Bit depth                        : 8 bits
Scan type                        : Progressive
Bits/(Pixel*Frame)               : 0.311
Stream size                      : 1.03 GiB (79%)
Writing library                  : XviD 1.2.1 (UTC 2008-12-04)

Audio
ID                               : 1
Format                           : AC-3
Format/Info                      : Audio Coding 3
Mode extension                   : CM (complete main)
Codec ID                         : 2000
Duration                         : 1h 26mn
Bit rate mode                    : Constant
Bit rate                         : 448 Kbps
Channel(s)                       : 6 channels
Channel positions                : Front: L C R, Side: L R, LFE
Sampling rate                    : 48.0 KHz
Bit depth                        : 16 bits
Stream size                      : 278 MiB (21%)
Alignment                        : Split accross interleaves
Interleave, duration             : 40 ms (1.00 video frame)
Interleave, preload duration     : 500 ms



Eva Birthistle	 ... 	Louise
Ella Connolly	... 	Alice
Amelia Crowley	... 	Mary Brogan
Aidan Gillen	... 	Patrick
Brian Gleeson	... 	Martin O'Shea
Dan Gordon	... 	Mick O'Shea


The parents of a girl who was killed by a savage dog are granted the 
opportunity to spend three days with their deceased daughter. 
 


[img]http://img25.imageshack.us/img25/6923/70700778.png[/img]
[img]http://img860.imageshack.us/img860/9886/wawa.png[/img]
[img]http://img805.imageshack.us/img805/5784/wawawa.png[/img]
[img]http://img269.imageshack.us/img269/3163/wawawawa.png[/img]
[img]http://img710.imageshack.us/img710/6011/wawawawawa.png[/img]
[img]http://img684.imageshack.us/img684/4208/waawawawawa.png[/img]
[img]http://img121.imageshack.us/img121/6754/wawawawawawa.png[/img]




Greetz

ViSiON,LUSi,SANTi,MAGNET,THC,T0XiCiNK,LKRG,IMAGiNE,WBZ,FLAWL3SS,NOVA
Vik,OneTwo,Rapeseed,D2U,SAFC,goldadvance,MEMORY100,KaN1vE,Unevano,Mr Hive
and all P2P groups 
Great Work Guys :D

CM8@hushmail.com